<svg width="30" height="29" viewBox="0 0 30 29" fill="none" xmlns="http://www.w3.org/2000/svg">
<rect x="0.223633" y="4" width="25.2987" height="25" rx="2" fill="#EFF3F9"/>
<rect x="21.9744" y="0.5" width="7.09557" height="7" rx="3.5" fill="#F44336" stroke="white"/>
<path opacity="0.5" d="M18.6082 19.0078C18.1628 18.5156 17.2957 17.7891 17.2957 15.375C17.2957 13.5703 16.03 12.1172 14.2957 11.7422V11.25C14.2957 10.8516 13.9675 10.5 13.5691 10.5C13.1472 10.5 12.8191 10.8516 12.8191 11.25V11.7422C11.0847 12.1172 9.81909 13.5703 9.81909 15.375C9.81909 17.7891 8.9519 18.5156 8.50659 19.0078C8.36597 19.1484 8.29565 19.3359 8.31909 19.5C8.31909 19.8984 8.60034 20.25 9.06909 20.25H18.0457C18.5144 20.25 18.7957 19.8984 18.8191 19.5C18.8191 19.3359 18.7488 19.1484 18.6082 19.0078ZM9.8894 19.125C10.3816 18.4922 10.9207 17.3906 10.9441 15.3984C10.9441 15.3984 10.9441 15.3984 10.9441 15.375C10.9441 13.9453 12.116 12.75 13.5691 12.75C14.9988 12.75 16.1941 13.9453 16.1941 15.375C16.1941 15.3984 16.1707 15.3984 16.1707 15.3984C16.1941 17.3906 16.7332 18.4922 17.2253 19.125H9.8894ZM13.5691 22.5C14.3894 22.5 15.0457 21.8438 15.0457 21H12.0691C12.0691 21.8438 12.7253 22.5 13.5691 22.5Z" fill="black"/>
</svg>
