<?xml version="1.0" encoding="UTF-8"?> <svg xmlns="http://www.w3.org/2000/svg" xmlns:xlink="http://www.w3.org/1999/xlink" viewBox="0 0 647.68 139.44"><defs><style>.cls-1{fill:#59595c;}.cls-10,.cls-11,.cls-12,.cls-2,.cls-3,.cls-4,.cls-5,.cls-6,.cls-7,.cls-8,.cls-9{fill-rule:evenodd;}.cls-2{fill:url(#linear-gradient);}.cls-3{fill:url(#linear-gradient-2);}.cls-4{fill:url(#linear-gradient-3);}.cls-5{fill:url(#linear-gradient-4);}.cls-6{fill:url(#linear-gradient-5);}.cls-7{fill:url(#linear-gradient-6);}.cls-8{fill:url(#linear-gradient-7);}.cls-9{fill:url(#linear-gradient-8);}.cls-10{fill:url(#linear-gradient-9);}.cls-11{fill:url(#linear-gradient-10);}.cls-12{fill:url(#linear-gradient-11);}</style><linearGradient id="linear-gradient" x1="157.55" y1="-34.26" x2="103.19" y2="148.86" gradientUnits="userSpaceOnUse"><stop offset="0" stop-color="#f05a24"></stop><stop offset="0.2" stop-color="#f05d24"></stop><stop offset="0.32" stop-color="#f58e16"></stop><stop offset="0.52" stop-color="#fddb00"></stop><stop offset="0.55" stop-color="#ead707"></stop><stop offset="0.65" stop-color="#aaca1f"></stop><stop offset="0.75" stop-color="#78c031"></stop><stop offset="0.83" stop-color="#54b83f"></stop><stop offset="0.9" stop-color="#3eb447"></stop><stop offset="0.94" stop-color="#36b24a"></stop></linearGradient><linearGradient id="linear-gradient-2" x1="99.76" y1="29.85" x2="125.04" y2="7.66" gradientUnits="userSpaceOnUse"><stop offset="0" stop-color="#cf4f27"></stop><stop offset="0.32" stop-color="#d95226" stop-opacity="0.69"></stop><stop offset="1" stop-color="#f05a24" stop-opacity="0"></stop></linearGradient><linearGradient id="linear-gradient-3" x1="132.88" y1="91.65" x2="141.01" y2="107.25" gradientUnits="userSpaceOnUse"><stop offset="0" stop-color="#76933c"></stop><stop offset="1" stop-color="#2e9c48" stop-opacity="0"></stop></linearGradient><linearGradient id="linear-gradient-4" x1="38.89" y1="-13.75" x2="84.78" y2="84.6" gradientUnits="userSpaceOnUse"><stop offset="0" stop-color="#1687c8"></stop><stop offset="0.29" stop-color="#1687c8"></stop><stop offset="0.3" stop-color="#1688c7"></stop><stop offset="0.46" stop-color="#22979a"></stop><stop offset="0.61" stop-color="#2aa377"></stop><stop offset="0.76" stop-color="#31ab5e"></stop><stop offset="0.89" stop-color="#35b04f"></stop><stop offset="1" stop-color="#36b24a"></stop></linearGradient><linearGradient id="linear-gradient-5" x1="125.74" y1="55.38" x2="140.14" y2="77.24" gradientUnits="userSpaceOnUse"><stop offset="0" stop-color="#36b24a" stop-opacity="0"></stop><stop offset="0.14" stop-color="#2daf4a" stop-opacity="0.21"></stop><stop offset="0.46" stop-color="#1aa84a" stop-opacity="0.63"></stop><stop offset="0.68" stop-color="#0ea44a" stop-opacity="0.9"></stop><stop offset="0.8" stop-color="#09a24a"></stop></linearGradient><linearGradient id="linear-gradient-6" x1="54" y1="81.77" x2="10.09" y2="54.65" gradientUnits="userSpaceOnUse"><stop offset="0.26" stop-color="#0eab4b"></stop><stop offset="0.39" stop-color="#10a366" stop-opacity="0.78"></stop><stop offset="0.67" stop-color="#148fab" stop-opacity="0.23"></stop><stop offset="0.78" stop-color="#1687c8" stop-opacity="0"></stop></linearGradient><linearGradient id="linear-gradient-7" x1="54" y1="81.77" x2="10.09" y2="54.65" gradientUnits="userSpaceOnUse"><stop offset="0.26" stop-color="#038a45"></stop><stop offset="0.41" stop-color="#088968" stop-opacity="0.73"></stop><stop offset="0.76" stop-color="#1587c2" stop-opacity="0.05"></stop><stop offset="0.78" stop-color="#1687c8" stop-opacity="0"></stop></linearGradient><linearGradient id="linear-gradient-8" x1="97.79" y1="147.46" x2="55.3" y2="55.99" gradientUnits="userSpaceOnUse"><stop offset="0" stop-color="#fddb00"></stop><stop offset="0.34" stop-color="#fdd901"></stop><stop offset="0.52" stop-color="#fcd104"></stop><stop offset="0.67" stop-color="#fac308"></stop><stop offset="0.79" stop-color="#f8b00f"></stop><stop offset="0.9" stop-color="#f69818"></stop><stop offset="0.98" stop-color="#f38020"></stop></linearGradient><linearGradient id="linear-gradient-9" x1="85.79" y1="27.51" x2="74.15" y2="43.63" gradientUnits="userSpaceOnUse"><stop offset="0" stop-color="#cf4f27"></stop><stop offset="0.18" stop-color="#d75226" stop-opacity="0.75"></stop><stop offset="0.38" stop-color="#e05525" stop-opacity="0.48"></stop><stop offset="0.58" stop-color="#e75725" stop-opacity="0.27"></stop><stop offset="0.75" stop-color="#ec5924" stop-opacity="0.12"></stop><stop offset="0.9" stop-color="#ef5a24" stop-opacity="0.03"></stop><stop offset="1" stop-color="#f05a24" stop-opacity="0"></stop></linearGradient><linearGradient id="linear-gradient-10" x1="51.81" y1="81.89" x2="77.53" y2="105.68" gradientUnits="userSpaceOnUse"><stop offset="0" stop-color="#67bb46"></stop><stop offset="0.38" stop-color="#a9d033"></stop><stop offset="0.56" stop-color="#cbdb2a"></stop><stop offset="0.71" stop-color="#d8d91f"></stop><stop offset="0.98" stop-color="#fad502"></stop><stop offset="1" stop-color="#fdd500"></stop></linearGradient><linearGradient id="linear-gradient-11" x1="51.81" y1="81.89" x2="77.53" y2="105.68" gradientUnits="userSpaceOnUse"><stop offset="0" stop-color="#029347"></stop><stop offset="0.17" stop-color="#3da83e" stop-opacity="0.7"></stop><stop offset="0.34" stop-color="#70ba37" stop-opacity="0.45"></stop><stop offset="0.51" stop-color="#98c931" stop-opacity="0.25"></stop><stop offset="0.67" stop-color="#b4d32d" stop-opacity="0.11"></stop><stop offset="0.84" stop-color="#c5d92b" stop-opacity="0.03"></stop><stop offset="1" stop-color="#cbdb2a" stop-opacity="0"></stop></linearGradient></defs><g id="Layer_2" data-name="Layer 2"><g id="Layer_1-2" data-name="Layer 1"><path class="cls-1" d="M231.85,38.17a38.58,38.58,0,0,1,8.64.95,25.31,25.31,0,0,1,7.08,2.65v8.45A56.76,56.76,0,0,0,240,47.86a32,32,0,0,0-7.07-.78,23.67,23.67,0,0,0-7.53,1.24,17.61,17.61,0,0,0-6.68,4.09A20.74,20.74,0,0,0,213.93,60a32.75,32.75,0,0,0-1.8,11.62,30.65,30.65,0,0,0,1.34,9.3,20.91,20.91,0,0,0,4,7.37,17.91,17.91,0,0,0,6.65,4.84,22.92,22.92,0,0,0,9.23,1.74A36.72,36.72,0,0,0,241,94a42.8,42.8,0,0,0,7.53-2.32v8.45a18.9,18.9,0,0,1-2.92,1.31,32.88,32.88,0,0,1-4,1.14,45.86,45.86,0,0,1-4.58.79,39.57,39.57,0,0,1-4.85.29,36.71,36.71,0,0,1-11.89-1.9,26.58,26.58,0,0,1-9.79-5.82A27.45,27.45,0,0,1,204,86a38.07,38.07,0,0,1-2.43-14.28,44.18,44.18,0,0,1,1.28-11.07A33,33,0,0,1,206.3,52a26.48,26.48,0,0,1,5.21-6.36,29.15,29.15,0,0,1,6.35-4.28,28.65,28.65,0,0,1,7-2.43A34.28,34.28,0,0,1,231.85,38.17Z"></path><path class="cls-1" d="M302,95.15h-.26a20.21,20.21,0,0,1-3.15,3.11,23,23,0,0,1-4.39,2.76,26.74,26.74,0,0,1-5.43,1.92,26,26,0,0,1-6.29.72,24.38,24.38,0,0,1-8.28-1.34,17.86,17.86,0,0,1-6.49-3.93,17.64,17.64,0,0,1-4.22-6.32,22.27,22.27,0,0,1-1.51-8.44,19.94,19.94,0,0,1,1.67-8.32,17.72,17.72,0,0,1,4.68-6.23,21.28,21.28,0,0,1,7.24-3.93,30.22,30.22,0,0,1,9.34-1.38,52.72,52.72,0,0,1,9,.86,46.9,46.9,0,0,1,7.33,2h.27V62.27a27.49,27.49,0,0,0-.34-4.52,12,12,0,0,0-1.1-3.47,13.28,13.28,0,0,0-5.45-5.21Q290.83,47,284.47,47a42,42,0,0,0-8.88.89,54.42,54.42,0,0,0-8.27,2.45V41.83a27.66,27.66,0,0,1,3.7-1.47,42.34,42.34,0,0,1,4.48-1.18q2.36-.48,5-.75c1.74-.17,3.49-.26,5.24-.26q9.42,0,15.42,3.34a19.87,19.87,0,0,1,8.61,8.84A18.33,18.33,0,0,1,311.17,55a34.84,34.84,0,0,1,.42,5.53V102h-8.51Zm-.52-20.44q-2.82-.78-6.65-1.51a52,52,0,0,0-8.48-.78q-6.46,0-10.11,2.75c-2.43,1.84-3.65,4.65-3.65,8.46a12.79,12.79,0,0,0,.91,5A9.82,9.82,0,0,0,276,92.24a10.43,10.43,0,0,0,3.77,2.09,15.42,15.42,0,0,0,4.67.69,18.87,18.87,0,0,0,6.06-1,25.83,25.83,0,0,0,5-2.26,28.49,28.49,0,0,0,3.72-2.62c1-.87,1.76-1.55,2.25-2Z"></path><path class="cls-1" d="M382.09,70.19a46.51,46.51,0,0,1-1.28,11.51,36.11,36.11,0,0,1-3.39,8.74,24.35,24.35,0,0,1-4.93,6.25,27.32,27.32,0,0,1-5.86,4.06,25.7,25.7,0,0,1-6.15,2.23,27.17,27.17,0,0,1-5.88.68,24.37,24.37,0,0,1-9.93-1.86,22.71,22.71,0,0,1-7.57-5.54h-.19v36.22H327V39.81h7.66l2.16,7.07h.2a13.65,13.65,0,0,1,2.19-2.55,23.84,23.84,0,0,1,3.61-2.66,26.05,26.05,0,0,1,5.44-2.46,22.1,22.1,0,0,1,6.91-1,29.44,29.44,0,0,1,10.11,1.77,22.43,22.43,0,0,1,8.62,5.63,28.32,28.32,0,0,1,6,9.92A42.16,42.16,0,0,1,382.09,70.19Zm-10.6.14a37.81,37.81,0,0,0-1.16-9.76,21.21,21.21,0,0,0-3.45-7.37,15.58,15.58,0,0,0-5.66-4.68,17.63,17.63,0,0,0-7.78-1.64,18.74,18.74,0,0,0-5.77.85,21.79,21.79,0,0,0-4.7,2.16,19.83,19.83,0,0,0-3.62,2.82,28.3,28.3,0,0,0-2.45,2.68V87.94a25.1,25.1,0,0,0,7.34,5.18,20.91,20.91,0,0,0,8.87,1.9,19.28,19.28,0,0,0,6.12-1.08,15,15,0,0,0,6-3.87,21.17,21.17,0,0,0,4.51-7.56A35.54,35.54,0,0,0,371.49,70.33Z"></path><path class="cls-1" d="M396.93,25.33V14h10.15V25.33Zm.27,76.7V39.81h10.15V102Z"></path><path class="cls-1" d="M425.1,102V7.19h10.15V102Z"></path><path class="cls-1" d="M451.4,102V7.19h10.15V102Z"></path><path class="cls-1" d="M516.67,95.15h-.27a20.56,20.56,0,0,1-3.14,3.11,23.31,23.31,0,0,1-4.39,2.76,27.27,27.27,0,0,1-5.44,1.92,25.9,25.9,0,0,1-6.29.72,24.28,24.28,0,0,1-8.27-1.34,17.86,17.86,0,0,1-6.49-3.93,17.66,17.66,0,0,1-4.23-6.32,22.47,22.47,0,0,1-1.5-8.44,19.94,19.94,0,0,1,1.67-8.32A17.6,17.6,0,0,1,483,69.08a21.28,21.28,0,0,1,7.24-3.93,30.16,30.16,0,0,1,9.33-1.38,52.72,52.72,0,0,1,9,.86,47,47,0,0,1,7.34,2h.26V62.27a28.72,28.72,0,0,0-.33-4.52,11.69,11.69,0,0,0-1.11-3.47,13.32,13.32,0,0,0-5.44-5.21Q505.53,47,499.18,47a42.07,42.07,0,0,0-8.89.89A54.42,54.42,0,0,0,482,50.35V41.83a28.79,28.79,0,0,1,3.7-1.47,42.54,42.54,0,0,1,4.49-1.18c1.56-.32,3.22-.57,5-.75s3.49-.26,5.24-.26q9.43,0,15.43,3.34a19.92,19.92,0,0,1,8.61,8.84A18.32,18.32,0,0,1,525.87,55a33.7,33.7,0,0,1,.42,5.53V102h-8.52Zm-.53-20.44c-1.88-.52-4.09-1-6.65-1.51a51.78,51.78,0,0,0-8.48-.78q-6.45,0-10.1,2.75c-2.44,1.84-3.66,4.65-3.66,8.46a12.61,12.61,0,0,0,.93,5,9.76,9.76,0,0,0,2.49,3.58,10.52,10.52,0,0,0,3.79,2.09,15.31,15.31,0,0,0,4.66.69,18.82,18.82,0,0,0,6.06-1,26.21,26.21,0,0,0,5-2.26,27.67,27.67,0,0,0,3.71-2.62q1.53-1.31,2.25-2Z"></path><path class="cls-1" d="M576.86,48.06h-.79a37.91,37.91,0,0,0-7.08.66,29.33,29.33,0,0,0-6.51,2A24.73,24.73,0,0,0,557,54a17.82,17.82,0,0,0-4.1,4.64V102H542.73V39.81h7.86l2,9.88h.2a24,24,0,0,1,3.7-4.52,25.47,25.47,0,0,1,11-6.12,26.61,26.61,0,0,1,6.87-.88l1.34,0c.46,0,.86.06,1.22.1Z"></path><path class="cls-1" d="M587.82,39.81H598L617.3,88.6h.4l19.84-48.79h10.14l-38.53,92.67H599.07l13.29-31.69Z"></path><path class="cls-2" d="M92.41,17.81c3.2,2.24,7.4,5.21,10.81,7.89,44.37-23.31,72.5,15.32,45,40.13a62.13,62.13,0,0,1-11.64,8c-14,7.93-34.76,18.85-39.5,36-2.48,9,.27,19.65,7.75,25.29,5.68,4.29,13,5.2,19.72,3.64,25.51-5.35,32.56-32.57,24.94-53.89l-.21.13a105.74,105.74,0,0,0,10.63-7.65C220.66,27.21,162.19-29.15,92.41,17.81ZM136,92.62c2.46,25-23.4,39-33.26,31.55s14.56-21.52,27.36-28.38Z"></path><path class="cls-3" d="M133.49,18.73V1c-12.56,1.81-26.58,7.1-41.08,16.86,3.2,2.24,7.4,5.21,10.81,7.89C114.6,19.72,124.9,17.83,133.49,18.73Z"></path><path class="cls-4" d="M149.52,84.84,136,92.62a31.68,31.68,0,0,1-.87,11.27v30.85C151.73,125.15,156.17,103,149.52,84.84Z"></path><path class="cls-5" d="M105,27.08c-4.08-3.21-8-6.6-12.3-9.51-73.28-49.76-134.58,16.8-56,67.78a104.56,104.56,0,0,1,7-15C5.59,46.68,35.47.74,82.24,25.7c3.28,1.56,40,23.43,49.35,51,3.81-2.15,7.76-4.22,11.56-6.83C135.9,56.73,120.61,39.78,105,27.08Z"></path><path class="cls-6" d="M124.45,45.3c-.51.53-1,1.05-1.56,1.53-.73.62-1.49,1.21-2.27,1.77s-1.59,1.11-2.41,1.64l-2.41,1.59-.12.08c6.82,7.29,12.85,15.7,15.91,24.74,3.81-2.15,7.76-4.22,11.56-6.83C139,62.4,132.33,53.73,124.45,45.3Z"></path><path class="cls-7" d="M27.41,51.06l0,0a35.46,35.46,0,0,1-4.84,3.59c-1.72,1.09-3.5,2.09-5.27,3.11-.88.5-1.76,1-2.63,1.54-.43.26-.85.53-1.29.78s-.88.52-1.31.8S11,61.64,10.5,62C16.41,69.84,25,77.76,36.67,85.35a104.56,104.56,0,0,1,7-15C34.69,64.76,29.5,57.92,27.41,51.06Z"></path><path class="cls-8" d="M27.41,51.06l0,0a35.46,35.46,0,0,1-4.84,3.59c-1.72,1.09-3.5,2.09-5.27,3.11-.88.5-1.76,1-2.63,1.54-.43.26-.85.53-1.29.78s-.88.52-1.31.8S11,61.64,10.5,62C16.41,69.84,25,77.76,36.67,85.35a104.56,104.56,0,0,1,7-15C34.69,64.76,29.5,57.92,27.41,51.06Z"></path><path class="cls-9" d="M55.45,77c.29-.63.59-1.25.88-1.84,7.16-14.84,22.3-31.51,36.73-42.6-.7-.5-2.14-1.53-2.82-2a63.2,63.2,0,0,0-7.75-4.69C72.2,34.27,61,45.54,53.92,54.78c-9.43,12.32-21,28-21,48.36,0,16.4,8.55,31.52,28,35.59,6.76,1.56,14.68.65,20.36-3.64,7.47-5.64,10.41-16.38,7.76-25.29C83.73,92.16,55.45,77,55.45,77Zm28.06,46.49C75.4,132,51.06,120.13,49.59,99.33a20.63,20.63,0,0,1,.5-6.35C54.19,95,92.7,113.74,83.51,123.45Z"></path><path class="cls-10" d="M63.51,45.74q1.91,1.48,3.86,2.91t3.95,2.76c.32.22.66.42,1,.63A151.34,151.34,0,0,1,93.06,32.52c-.7-.5-2.14-1.53-2.82-2a63.2,63.2,0,0,0-7.75-4.69,207.49,207.49,0,0,0-20.1,19C62.76,45.14,63.13,45.45,63.51,45.74Z"></path><path class="cls-11" d="M55.46,77a87.89,87.89,0,0,0-5.37,16c2.16,1,14.29,7,23.62,13.69H87.82C80.46,90.4,55.46,77,55.46,77Z"></path><path class="cls-12" d="M55.46,77a87.89,87.89,0,0,0-5.37,16c2.16,1,14.29,7,23.62,13.69H87.82C80.46,90.4,55.46,77,55.46,77Z"></path></g></g></svg> 